<svg width="184" height="177" viewBox="0 0 184 177" fill="none" xmlns="http://www.w3.org/2000/svg">

<g id="Grafiken">

<path d="M-1194 -766V-765H1136V-766V-767H-1194V-766ZM1138 -764H1137V1747H1138H1139V-764H1138ZM1136 1749V1748H-1194V1749V1750H1136V1749ZM-1196 1747H-1195V-764H-1196H-1197V1747H-1196ZM-1194 1749V1748C-1194.55 1748 -1195 1747.55 -1195 1747H-1196H-1197C-1197 1748.66 -1195.66 1750 -1194 1750V1749ZM1138 1747H1137C1137 1747.55 1136.55 1748 1136 1748V1749V1750C1137.66 1750 1139 1748.66 1139 1747H1138ZM1136 -766V-765C1136.55 -765 1137 -764.552 1137 -764H1138H1139C1139 -765.657 1137.66 -767 1136 -767V-766ZM-1194 -766V-767C-1195.66 -767 -1197 -765.657 -1197 -764H-1196H-1195C-1195 -764.552 -1194.55 -765 -1194 -765V-766Z" fill="black" fill-opacity="0.1"/>
<path id="Bob 4" fill-rule="evenodd" clip-rule="evenodd" d="M97.6419 0.049898C135.629 1.16076 165.629 29.1186 177.626 65.2254C189.924 102.238 185.727 146.311 153.543 168.29C123.358 188.905 86.2591 169.176 56.5009 147.948C25.475 125.815 -8.36209 96.8308 1.85944 60.0854C13.0333 19.9165 56.0162 -1.16738 97.6419 0.049898Z" fill="#FFA3EB"/>
</g>
</svg>
